<svg width="131" height="26" viewBox="0 0 131 26" fill="none" xmlns="http://www.w3.org/2000/svg">
<g clip-path="url(#clip0_1038_1160)">
<path d="M97.8718 6.4703C98.8909 6.4703 99.8161 6.59992 100.647 6.85915C101.479 7.11839 102.181 7.45361 102.753 7.86481C103.11 8.11511 103.392 8.39222 103.597 8.69615C103.803 9.00009 103.906 9.39341 103.906 9.87613V19.2623L103.901 19.5175C103.872 20.3575 103.695 21.0903 103.369 21.7161C103.012 22.4044 102.525 22.9765 101.908 23.4324C101.291 23.8883 100.567 24.2235 99.7357 24.4381C98.9043 24.6526 98.0149 24.7599 97.0673 24.7599C95.4404 24.7599 94.1621 24.5409 93.2324 24.1028C92.3027 23.6648 91.8379 22.9542 91.8379 21.9708C91.8379 21.5596 91.9228 21.1976 92.0927 20.8847C92.2625 20.5719 92.4547 20.335 92.6692 20.1741C93.1877 20.4601 93.7732 20.7015 94.4258 20.8981C95.0784 21.0948 95.7533 21.1931 96.4505 21.1931C97.4159 21.1931 98.1847 21.0322 98.7568 20.7104C99.3289 20.3886 99.615 19.8701 99.615 19.155V18.7259L99.4111 18.8097C98.7181 19.0757 97.8922 19.2086 96.9332 19.2086C96.1287 19.2086 95.3644 19.088 94.6403 18.8466C93.9163 18.6052 93.2816 18.2298 92.7363 17.7203C92.191 17.2107 91.753 16.5537 91.4222 15.7492C91.0915 14.9446 90.9261 13.9882 90.9261 12.8797C90.9261 11.7891 91.1004 10.8416 91.449 10.037C91.7977 9.23251 92.2804 8.56654 92.8972 8.03912C93.514 7.51171 94.247 7.11839 95.0962 6.85915C95.9454 6.59992 96.8707 6.4703 97.8718 6.4703ZM25.6865 6.88662C27.2808 6.88662 28.5855 7.24437 29.6004 7.95989C30.6154 8.67541 31.2162 9.93923 31.4028 11.7513H27.9964L27.9637 11.5509C27.8866 11.1557 27.738 10.7947 27.518 10.4681C27.1447 9.95478 26.5653 9.69813 25.7798 9.69813C24.6599 9.69813 23.8938 10.2542 23.4816 11.3664C23.2638 11.9574 23.155 12.743 23.155 13.7229C23.155 14.6562 23.2638 15.4067 23.4816 15.9744C23.8783 17.0322 24.6249 17.561 25.7215 17.561C26.4992 17.561 27.0514 17.351 27.3781 16.9311C27.7047 16.5111 27.903 15.9667 27.973 15.2978H31.3678L31.3448 15.5302C31.2321 16.4557 30.8743 17.3349 30.2712 18.1677C29.2291 19.622 27.6853 20.3492 25.6398 20.3492C23.5944 20.3492 22.0895 19.7426 21.1251 18.5293C20.1607 17.316 19.6785 15.7411 19.6785 13.8046C19.6785 11.6191 20.2112 9.91978 21.2767 8.70652C22.3422 7.49325 23.8121 6.88662 25.6865 6.88662ZM56.5834 6.85162C57.6412 6.85162 58.5939 7.04994 59.4416 7.44659C60.2893 7.84323 60.9893 8.46931 61.5415 9.32481C62.0392 10.0792 62.362 10.9542 62.5098 11.9497C62.5953 12.533 62.6303 13.3729 62.6148 14.4695H53.9119L53.9238 14.6907C54.0069 15.8489 54.4035 16.6696 55.1135 17.1527C55.5724 17.4716 56.1246 17.631 56.7701 17.631C57.4545 17.631 58.0106 17.4366 58.4383 17.0477C58.6717 16.8377 58.8778 16.5461 59.0566 16.1728H62.4515L62.4263 16.3471C62.3037 17.0451 61.9193 17.7531 61.2732 18.471C60.1844 19.7076 58.66 20.3259 56.7001 20.3259C55.0824 20.3259 53.6553 19.8048 52.4187 18.7626C51.1821 17.7205 50.5638 16.025 50.5638 13.6762C50.5638 11.4753 51.1218 9.78757 52.2379 8.61319C53.3539 7.43881 54.8024 6.85162 56.5834 6.85162ZM79.9285 2.17949C80.3218 2.17949 80.6749 2.2063 80.9878 2.25994C81.3006 2.31357 81.5643 2.42084 81.7789 2.58175C81.9934 2.74265 82.1588 2.96166 82.275 3.23878C82.3912 3.51589 82.4493 3.87793 82.4493 4.32489V19.8791L82.3593 19.8952C82.1677 19.9292 81.9072 19.9729 81.5777 20.0266C81.1934 20.0891 80.8045 20.1204 80.4112 20.1204C80.0178 20.1204 79.6647 20.0936 79.3519 20.04C79.039 19.9863 78.7753 19.8791 78.5608 19.7182C78.3462 19.5573 78.1808 19.3383 78.0646 19.0611C77.9484 18.784 77.8903 18.422 77.8903 17.975V2.42084L77.9804 2.4047C78.1719 2.37077 78.4324 2.32698 78.7619 2.27335C79.1463 2.21077 79.5351 2.17949 79.9285 2.17949ZM86.7816 6.81892C87.1749 6.81892 87.528 6.84574 87.8409 6.89938C88.1537 6.95301 88.4174 7.06028 88.632 7.22119C88.8465 7.38209 89.0119 7.6011 89.1281 7.87822C89.2443 8.15533 89.3024 8.51737 89.3024 8.96433V19.8791L89.2124 19.8952C89.0208 19.9292 88.7603 19.9729 88.4308 20.0266C88.0465 20.0891 87.6576 20.1204 87.2643 20.1204C86.871 20.1204 86.5179 20.0936 86.205 20.04C85.8921 19.9863 85.6284 19.8791 85.4139 19.7182C85.1993 19.5573 85.034 19.3383 84.9177 19.0611C84.8015 18.784 84.7434 18.422 84.7434 17.975V7.06028L84.8335 7.04414C85.025 7.01021 85.2855 6.96642 85.615 6.91279C85.9994 6.85021 86.3882 6.81892 86.7816 6.81892ZM108.131 2.17949C108.524 2.17949 108.877 2.2063 109.19 2.25994C109.503 2.31357 109.767 2.42084 109.981 2.58175C110.196 2.74265 110.361 2.96166 110.477 3.23878C110.594 3.51589 110.652 3.87793 110.652 4.32489V6.95301L110.744 6.91886C110.974 6.83771 111.296 6.74629 111.711 6.64461C112.185 6.5284 112.708 6.4703 113.28 6.4703C115.05 6.4703 116.431 6.91279 117.423 7.79777C118.415 8.68275 118.911 10.0013 118.911 11.7534V19.8791L118.829 19.9021C118.65 19.948 118.396 19.994 118.067 20.04C117.682 20.0936 117.285 20.1204 116.873 20.1204C116.48 20.1204 116.127 20.0936 115.814 20.04C115.501 19.9863 115.237 19.8791 115.023 19.7182C114.808 19.5573 114.643 19.3383 114.527 19.0611C114.411 18.784 114.352 18.422 114.352 17.975V12.0215L114.349 11.8563C114.323 11.2107 114.141 10.7518 113.803 10.4795C113.436 10.1845 112.985 10.037 112.448 10.037C112.091 10.037 111.751 10.0817 111.429 10.1711C111.108 10.2605 110.848 10.3678 110.652 10.4929V19.8791L110.569 19.9021C110.39 19.948 110.136 19.994 109.807 20.04C109.423 20.0936 109.025 20.1204 108.613 20.1204C108.22 20.1204 107.867 20.0936 107.554 20.04C107.241 19.9863 106.978 19.8791 106.763 19.7182C106.549 19.5573 106.383 19.3383 106.267 19.0611C106.151 18.784 106.093 18.422 106.093 17.975V2.42084L106.183 2.4047C106.374 2.37077 106.635 2.32698 106.964 2.27335C107.349 2.21077 107.737 2.17949 108.131 2.17949ZM76.0253 3.65445L76.0867 3.75837C76.1873 3.94088 76.2786 4.16995 76.3605 4.44557C76.4588 4.77632 76.508 5.12048 76.508 5.47805C76.508 6.1753 76.3605 6.67143 76.0655 6.96642C75.7705 7.26142 75.3727 7.40891 74.8721 7.40891H69.2404V10.4393H75.1135L75.1831 10.5428C75.2961 10.7241 75.3936 10.9488 75.4755 11.217C75.5739 11.5388 75.623 11.8785 75.623 12.2361C75.623 12.9155 75.4755 13.4026 75.1805 13.6976C74.8855 13.9926 74.4877 14.1401 73.9871 14.1401H69.2941V19.7986L69.2029 19.8216C69.007 19.8676 68.729 19.9136 68.3689 19.9595C67.9487 20.0132 67.5331 20.04 67.1219 20.04C66.7106 20.04 66.3486 20.0087 66.0357 19.9461C65.7229 19.8835 65.4592 19.7718 65.2446 19.6109C65.0301 19.45 64.8692 19.2265 64.7619 18.9405C64.6546 18.6544 64.601 18.279 64.601 17.8141V6.14849L64.6057 5.95965C64.6398 5.27952 64.8617 4.7346 65.2714 4.32489C65.7184 3.87793 66.3263 3.65445 67.095 3.65445H76.0253ZM12.9942 2.73351V5.75501H4.37299V9.70979H11.9209V12.6963H4.37299V19.9059H0.803192V2.73351H12.9942ZM17.8646 7.18993V19.9059H14.4931V7.18993H17.8646ZM36.2382 2.76851V12.0313L40.3797 7.24826H44.4978L40.053 12.113L44.6728 19.9059H40.6597L37.6148 14.4695L36.2382 15.9045V19.9059H32.9717V2.76851H36.2382ZM49.0065 2.71018V19.9059H45.6817V2.71018H49.0065ZM119.16 3.54417C119.717 3.37658 120.668 3.3393 121.782 3.83171C122.906 4.32881 123.607 5.18145 123.885 6.38963L129.919 6.90246C129.994 6.90679 130.068 6.92193 130.142 6.94787C130.253 6.98678 130.312 7.04153 130.362 7.08439C130.485 7.18947 130.525 7.2705 130.583 7.41559C130.687 7.67358 130.655 7.97724 130.52 8.18544C130.302 8.52112 129.961 8.73831 129.496 8.83702L124.625 9.87242L125.485 13.9178C125.584 14.3822 125.801 14.6813 126.138 14.8151C126.474 14.9489 126.91 14.9589 127.446 14.845C127.714 14.7881 127.986 14.7069 128.262 14.6015C128.539 14.4961 128.776 14.3849 128.976 14.2679C129.178 14.4302 129.363 14.6196 129.53 14.836C129.698 15.0525 129.817 15.3304 129.89 15.6697C130.156 16.9242 128.182 18.1093 126.887 18.3419C125.689 18.5573 123.85 18.7363 122.798 15.9818C121.747 13.2273 120.095 8.61019 118.835 4.76245C118.726 4.4304 118.659 4.10426 118.776 3.83515C118.839 3.68969 118.885 3.6269 119.16 3.54417ZM98.0864 10.037C97.2104 10.037 96.5533 10.2829 96.1153 10.7745C95.6773 11.2662 95.4583 11.9679 95.4583 12.8797C95.4583 13.9166 95.6773 14.6631 96.1153 15.119C96.5533 15.5749 97.112 15.8028 97.7914 15.8028C98.5244 15.8028 99.1055 15.633 99.5345 15.2933V10.3588L99.4525 10.3159C99.3338 10.2587 99.1779 10.2015 98.9848 10.1443C98.7434 10.0728 98.444 10.037 98.0864 10.037ZM56.5834 9.59313C55.8135 9.59313 55.2166 9.83423 54.7927 10.3164C54.3688 10.7986 54.1025 11.4519 53.9936 12.2763H59.1616C59.1072 11.3975 58.8408 10.7306 58.3625 10.2756C57.8842 9.82062 57.2912 9.59313 56.5834 9.59313ZM17.8646 2.60519V5.67335H14.4931V2.60519H17.8646ZM87.0229 0.838608C87.7738 0.838608 88.3772 1.07103 88.8331 1.53586C89.289 2.0007 89.517 2.57281 89.517 3.25219C89.517 3.93157 89.289 4.50367 88.8331 4.96851C88.3772 5.43335 87.7738 5.66577 87.0229 5.66577C86.272 5.66577 85.6686 5.43335 85.2127 4.96851C84.7568 4.50367 84.5289 3.93157 84.5289 3.25219C84.5289 2.57281 84.7568 2.0007 85.2127 1.53586C85.6686 1.07103 86.272 0.838608 87.0229 0.838608Z" fill="url(#paint0_linear_1038_1160)"/>
</g>
<defs>
<linearGradient id="paint0_linear_1038_1160" x1="121.217" y1="12.5145" x2="1.99609" y2="24.6499" gradientUnits="userSpaceOnUse">
<stop stop-color="#299BD8"/>
<stop offset="1" stop-color="#1262AF"/>
</linearGradient>
<clipPath id="clip0_1038_1160">
<rect width="130.072" height="24.6688" fill="white" transform="translate(0.803223 0.445877)"/>
</clipPath>
</defs>
</svg>
