<svg width="50" height="50" viewBox="0 0 50 50" fill="none" xmlns="http://www.w3.org/2000/svg">
<path d="M0.374336 12.4283C0.374336 5.82267 5.72929 0.467712 12.335 0.467712H37.2931C43.8988 0.467712 49.2537 5.82267 49.2537 12.4283V37.3865C49.2537 43.9922 43.8988 49.3471 37.2931 49.3471H12.335C5.72929 49.3471 0.374336 43.9922 0.374336 37.3865V12.4283Z" fill="#FF9B53"/>
<path d="M29.0045 13.9553C28.512 13.4677 27.8441 13.1938 27.1478 13.1938C26.4514 13.1938 25.7836 13.4677 25.291 13.9553L13.7584 25.3815C13.5145 25.6231 13.321 25.91 13.189 26.2257C13.057 26.5414 12.989 26.8798 12.989 27.2215C12.989 27.5632 13.057 27.9016 13.189 28.2173C13.321 28.533 13.5145 28.8198 13.7584 29.0615L15.1266 30.4157C15.7219 31.0067 16.559 30.9015 17.0644 30.6031C17.3433 30.4391 17.6693 30.3717 17.9911 30.4117C18.3128 30.4517 18.612 30.5967 18.8413 30.8239C19.0706 31.051 19.217 31.3474 19.2573 31.6662C19.2977 31.9849 19.2297 32.3079 19.0642 32.5842C18.7642 33.0849 18.6568 33.9141 19.2533 34.5039L20.6226 35.8593C20.8665 36.101 21.1561 36.2927 21.4748 36.4234C21.7935 36.5542 22.135 36.6215 22.48 36.6215C22.8249 36.6215 23.1665 36.5542 23.4851 36.4234C23.8038 36.2927 24.0934 36.101 24.3373 35.8593L35.8688 24.4355C36.1127 24.1939 36.3062 23.907 36.4382 23.5913C36.5702 23.2756 36.6381 22.9372 36.6381 22.5955C36.6381 22.2538 36.5702 21.9154 36.4382 21.5997C36.3062 21.284 36.1127 20.9971 35.8688 20.7555L34.5018 19.4001C33.9064 18.8103 33.0682 18.9144 32.5627 19.2128C32.2839 19.3768 31.9578 19.4441 31.6361 19.4041C31.3143 19.3641 31.0152 19.2191 30.7859 18.992C30.5566 18.7648 30.4102 18.4684 30.3698 18.1497C30.3294 17.8309 30.3974 17.5079 30.563 17.2317C30.8642 16.7309 30.9704 15.9017 30.3739 15.3119L29.0057 13.9553H29.0045Z" fill="white"/>
</svg>
