<svg width="53" height="50" viewBox="0 0 53 50" fill="none" xmlns="http://www.w3.org/2000/svg">
<path d="M0.563507 12.4283C0.563507 5.82267 5.91847 0.467712 12.5241 0.467712H40.9306C47.5363 0.467712 52.8913 5.82267 52.8913 12.4283V37.3865C52.8913 43.9922 47.5363 49.3471 40.9306 49.3471H12.5241C5.91847 49.3471 0.563507 43.9922 0.563507 37.3865V12.4283Z" fill="#4DABFF"/>
<path d="M34.8794 18.2327C34.6438 17.5895 33.9841 17.1316 33.2066 17.1316H30.2614V16.0415C30.2614 15.4419 29.7313 14.9513 29.0833 14.9513H24.3711C23.7231 14.9513 23.193 15.4419 23.193 16.0415V17.1316H20.2478C19.4703 17.1316 18.8224 17.5895 18.575 18.2327L16.2542 24.4139C16.1717 24.6428 16.1246 24.8827 16.1246 25.1334V32.939C16.1246 33.8438 16.9139 34.5742 17.8917 34.5742C18.8695 34.5742 19.6588 33.8438 19.6588 32.939V32.3939H33.7956V32.939C33.7956 33.8329 34.5849 34.5742 35.5627 34.5742C36.5287 34.5742 37.3298 33.8438 37.3298 32.939V25.1334C37.3298 24.8936 37.2827 24.6428 37.2002 24.4139L34.8794 18.2327ZM20.2478 29.1234C19.27 29.1234 18.4807 28.393 18.4807 27.4882C18.4807 26.5833 19.27 25.8529 20.2478 25.8529C21.2256 25.8529 22.0149 26.5833 22.0149 27.4882C22.0149 28.393 21.2256 29.1234 20.2478 29.1234ZM33.2066 29.1234C32.2288 29.1234 31.4395 28.393 31.4395 27.4882C31.4395 26.5833 32.2288 25.8529 33.2066 25.8529C34.1844 25.8529 34.9737 26.5833 34.9737 27.4882C34.9737 28.393 34.1844 29.1234 33.2066 29.1234ZM18.4807 23.6726L20.2478 18.7669H33.2066L34.9737 23.6726H18.4807Z" fill="white"/>
</svg>
