<svg width="49" height="50" viewBox="0 0 49 50" fill="none" xmlns="http://www.w3.org/2000/svg">
<path d="M0.0796967 12.4283C0.0796967 5.82267 5.43466 0.467712 12.0403 0.467712H36.9985C43.6041 0.467712 48.9591 5.82267 48.9591 12.4283V37.3865C48.9591 43.9922 43.6041 49.3471 36.9985 49.3471H12.0403C5.43465 49.3471 0.0796967 43.9922 0.0796967 37.3865V12.4283Z" fill="#FDBF00"/>
<path d="M14.4582 30.8678C14.4582 31.9642 14.9486 32.9484 15.7158 33.6337V35.2284C15.7158 36.2625 16.5584 37.0973 17.6022 37.0973C18.6461 37.0973 19.4887 36.2625 19.4887 35.2284V34.6055H29.5498V35.2284C29.5498 36.2501 30.3924 37.0973 31.4362 37.0973C32.4675 37.0973 33.3227 36.2625 33.3227 35.2284V33.6337C34.0898 32.9484 34.5803 31.9642 34.5803 30.8678V18.4088C34.5803 14.0482 30.078 13.4252 24.5192 13.4252C18.9605 13.4252 14.4582 14.0482 14.4582 18.4088V30.8678ZM18.8599 32.1137C17.816 32.1137 16.9734 31.2789 16.9734 30.2448C16.9734 29.2107 17.816 28.376 18.8599 28.376C19.9037 28.376 20.7463 29.2107 20.7463 30.2448C20.7463 31.2789 19.9037 32.1137 18.8599 32.1137ZM30.1786 32.1137C29.1348 32.1137 28.2921 31.2789 28.2921 30.2448C28.2921 29.2107 29.1348 28.376 30.1786 28.376C31.2224 28.376 32.065 29.2107 32.065 30.2448C32.065 31.2789 31.2224 32.1137 30.1786 32.1137ZM32.065 24.6383H16.9734V18.4088H32.065V24.6383Z" fill="white"/>
</svg>
