<svg width="50" height="50" viewBox="0 0 50 50" fill="none" xmlns="http://www.w3.org/2000/svg">
<path d="M0.771515 12.4283C0.771515 5.82267 6.12647 0.467712 12.7321 0.467712H37.6903C44.296 0.467712 49.6509 5.82267 49.6509 12.4283V37.3865C49.6509 43.9922 44.296 49.3471 37.6903 49.3471H12.7321C6.12647 49.3471 0.771515 43.9922 0.771515 37.3865V12.4283Z" fill="#79CA00"/>
<path d="M33.018 16.2062H17.4039C16.3275 16.2062 15.4522 17.0734 15.4522 18.1397V31.6746C15.4522 32.741 16.3275 33.6082 17.4039 33.6082H33.018C34.0944 33.6082 34.9698 32.741 34.9698 31.6746V18.1397C34.9698 17.0734 34.0944 16.2062 33.018 16.2062ZM33.019 22.0068C33.018 22.0068 33.018 22.0068 33.019 22.0068H32.5652L29.9625 18.1397H33.018L33.019 22.0068ZM28.6266 27.8075L23.2592 30.7078V24.9072L28.6266 27.8075ZM27.6858 22.0068L25.0831 18.1397H27.6165L30.2192 22.0068H27.6858ZM25.3398 22.0068H22.8064L20.2037 18.1397H22.7371L25.3398 22.0068ZM17.4039 18.1397H17.8577L20.4604 22.0068H17.4039V18.1397Z" fill="white"/>
</svg>
