<svg width="89" height="19" viewBox="0 0 89 19" fill="none" xmlns="http://www.w3.org/2000/svg">
<line x1="4.53867" y1="9.02787" x2="81.9478" y2="9.02788" stroke="#CCCCCC" stroke-width="0.74754" stroke-dasharray="2.24 2.24"/>
<path d="M43.8445 16.4423H42.8238C42.7212 16.4423 42.6203 16.4187 42.5302 16.3739C42.4402 16.329 42.3639 16.2642 42.3083 16.1854C42.2528 16.1066 42.2197 16.0164 42.2121 15.9229C42.2046 15.8295 42.2228 15.7357 42.2651 15.6504L44.7367 10.6658L41.0254 10.5905L39.6719 12.0892C39.4138 12.3856 39.2079 12.5177 38.6826 12.5177H37.9955C37.8867 12.5209 37.7787 12.5001 37.6805 12.457C37.5824 12.414 37.4971 12.3499 37.4318 12.2703C37.3406 12.1578 37.2508 11.9672 37.3383 11.6953L38.0982 9.20739C38.104 9.18882 38.1109 9.17025 38.1186 9.15202C38.1189 9.15029 38.1189 9.1485 38.1186 9.14677C38.1106 9.12856 38.1039 9.10996 38.0982 9.09105L37.3375 6.58738C37.2551 6.32072 37.3452 6.1343 37.4357 6.02462C37.4964 5.95094 37.5753 5.89131 37.6658 5.85053C37.7564 5.80976 37.8562 5.78897 37.9571 5.78985H38.6826C39.0749 5.78985 39.4556 5.95069 39.6795 6.21034L41.0051 7.68381L44.7367 7.63335L42.2659 2.65754C42.2235 2.5722 42.2052 2.47851 42.2127 2.38505C42.2202 2.29159 42.2532 2.20133 42.3086 2.12252C42.3641 2.04371 42.4404 1.97888 42.5304 1.93394C42.6203 1.889 42.7212 1.86539 42.8238 1.86526H43.8556C43.9996 1.86791 44.141 1.90015 44.2695 1.9596C44.3979 2.01905 44.51 2.10418 44.5976 2.20867L49.3925 7.53489L51.6076 7.48162C51.7698 7.47356 52.2192 7.47076 52.3231 7.47076C54.442 7.47181 55.7074 8.10045 55.7074 9.15378C55.7074 9.48526 55.5624 10.0999 54.5927 10.4909C54.0202 10.7222 53.2564 10.8392 52.3224 10.8392C52.2196 10.8392 51.7713 10.8364 51.6069 10.8284L49.3921 10.7744L44.5853 16.1006C44.4977 16.2047 44.3857 16.2894 44.2574 16.3485C44.1292 16.4076 43.9881 16.4397 43.8445 16.4423Z" fill="#1262AE"/>
<circle cx="4.73211" cy="9.40164" r="2.99016" fill="white" stroke="#1262AE" stroke-width="1.49508"/>
<circle cx="84.981" cy="9.0899" r="2.99016" fill="white" stroke="#1262AE" stroke-width="1.49508"/>
</svg>
