<svg width="50" height="50" viewBox="0 0 50 50" fill="none" xmlns="http://www.w3.org/2000/svg">
<rect x="0.152802" y="0.467712" width="48.8794" height="48.8794" rx="11.9606" fill="#F9668D"/>
<path d="M23.7371 21.5155H25.4491V20.6675C25.4491 20.4426 25.5393 20.2269 25.6999 20.0679C25.8604 19.9088 26.0781 19.8195 26.3051 19.8195H28.8732C29.1002 19.8195 29.318 19.9088 29.4785 20.0679C29.639 20.2269 29.7292 20.4426 29.7292 20.6675V21.5155H33.1533V18.1235C33.1533 17.2239 32.7925 16.3611 32.1504 15.725C31.5083 15.0889 30.6373 14.7315 29.7292 14.7315H19.457C18.5489 14.7315 17.678 15.0889 17.0358 15.725C16.3937 16.3611 16.0329 17.2239 16.0329 18.1235V21.5155H19.457V20.6675C19.457 20.4426 19.5472 20.2269 19.7077 20.0679C19.8683 19.9088 20.086 19.8195 20.313 19.8195H22.8811C23.1081 19.8195 23.3258 19.9088 23.4864 20.0679C23.6469 20.2269 23.7371 20.4426 23.7371 20.6675V21.5155Z" fill="white"/>
<path d="M16.8891 23.2115C15.754 23.2115 14.6654 23.6582 13.8627 24.4533C13.0601 25.2485 12.6092 26.3269 12.6092 27.4514V34.2354C12.6092 34.4603 12.6993 34.676 12.8599 34.835C13.0204 34.994 13.2381 35.0834 13.4651 35.0834C13.6922 35.0834 13.9099 34.994 14.0704 34.835C14.2309 34.676 14.3211 34.4603 14.3211 34.2354V29.9954H34.8647V34.2354C34.8647 34.4603 34.9549 34.676 35.1154 34.835C35.2759 34.994 35.4936 35.0834 35.7207 35.0834C35.9477 35.0834 36.1654 34.994 36.3259 34.835C36.4865 34.676 36.5766 34.4603 36.5766 34.2354V27.4514C36.5766 26.3269 36.1257 25.2485 35.3231 24.4533C34.5205 23.6582 33.4318 23.2115 32.2967 23.2115H16.8891Z" fill="white"/>
</svg>
