<svg width="50" height="50" viewBox="0 0 50 50" fill="none" xmlns="http://www.w3.org/2000/svg">
<rect x="0.595856" y="0.467712" width="48.8794" height="48.8794" rx="11.9606" fill="#36DA76"/>
<path d="M31.3655 34.4346C31.3245 33.5574 31.2702 32.6848 31.2267 31.8143C31.086 29.0908 31.0975 26.3275 30.9504 23.5906C30.8032 20.8742 30.8905 18.156 30.8128 15.4397C30.7972 14.8752 30.8224 13.7602 30.2383 13.4384C28.9817 12.7471 28.2357 14.6328 27.916 15.4005C27.3397 16.7941 27.0068 18.2597 26.5951 19.7034C26.2443 20.9392 25.8448 22.1709 25.7094 23.4504C25.6091 24.4104 25.6183 25.4852 26.1198 26.3502C26.3717 26.785 26.8072 27.0809 27.303 27.206C27.8176 27.3376 28.4061 27.1652 28.8944 27.3976C29.0203 27.4585 29.1312 27.5849 29.1817 27.7125C29.34 28.1238 29.1902 28.7479 29.1408 29.1722C28.984 30.5393 28.8183 31.9199 28.7441 33.2935C28.7002 34.1242 28.6516 35.1881 29.1541 35.9118C29.4622 36.3513 30.0864 36.7618 30.6497 36.5433C31.4915 36.2211 31.4005 35.1326 31.3655 34.4346Z" fill="white"/>
<path d="M20.6559 14.0448C20.4139 14.1418 20.5057 15.0067 20.4949 15.2725C20.479 15.7499 20.5116 16.3817 20.4541 17.0005C20.4538 17.0061 20.453 17.0099 20.4521 17.0137C20.4472 17.0567 20.4431 17.1031 20.4361 17.1521C20.4285 17.1994 20.4205 17.245 20.4147 17.2918C20.3631 17.5935 20.2649 17.9508 20.0794 18.1221C19.8687 18.318 19.3966 18.2768 19.2326 18.0453C18.9644 17.6685 18.9845 16.8272 18.9682 16.8024C18.9573 16.4044 18.8993 15.2006 18.8123 14.407C18.8051 14.3472 18.7936 13.9875 18.4651 13.949C18.3119 13.9324 18.1508 14.0629 18.0985 14.3013C17.9443 15.0049 17.7998 16.3463 17.7907 16.5572C17.7889 16.5776 17.788 16.6014 17.7879 16.6214C17.7879 16.6214 17.7871 16.6252 17.7875 16.6269C17.7865 16.6707 17.7344 17.7216 17.4685 18.0841C17.3295 18.2742 16.9686 18.4237 16.61 18.2226C16.4672 18.1416 16.3693 17.9855 16.3003 17.8184C15.9253 16.6512 16.2619 15.3654 16.3099 14.7527C16.324 14.5804 16.4801 14.005 16.1319 14.0243C15.6077 14.0528 14.9308 16.2862 14.8098 16.798C14.513 18.0717 14.468 19.4327 14.9842 20.6613C15.271 21.3417 15.8318 21.8986 16.5273 22.1686C16.8347 22.2868 17.1763 22.3727 17.5379 22.4225C17.4078 25.318 17.2601 28.3395 17.1255 30.0211C17.022 31.2865 16.8998 32.5659 16.9163 33.8366C16.926 34.5958 16.918 35.5011 17.4163 36.1376C17.9376 36.8027 19.0372 36.4967 19.3341 35.7109C19.6671 34.825 19.5703 33.7927 19.4569 32.1662C19.343 30.5379 19.2148 28.3168 19.1442 27.1217C19.0408 25.362 19.0048 23.8243 18.9948 22.4213C19.9208 22.289 20.7844 21.8917 21.2677 21.1611C21.4797 20.8415 21.6193 20.4844 21.7147 20.117C21.8609 19.5605 21.9323 18.9508 21.9007 18.3768C21.8685 17.8483 21.4342 13.733 20.6559 14.0448Z" fill="white"/>
</svg>
