<svg width="131" height="26" viewBox="0 0 131 26" fill="none" xmlns="http://www.w3.org/2000/svg">
<g clip-path="url(#clip0_1038_1489)">
<path d="M97.862 6.69004C98.8811 6.69004 99.8063 6.81966 100.638 7.07889C101.469 7.33813 102.171 7.67335 102.743 8.08455C103.1 8.33485 103.382 8.61196 103.588 8.9159C103.793 9.21983 103.896 9.61315 103.896 10.0959V19.482L103.892 19.7372C103.862 20.5772 103.685 21.3101 103.36 21.9358C103.002 22.6241 102.515 23.1962 101.898 23.6521C101.281 24.108 100.557 24.4433 99.7258 24.6578C98.8945 24.8723 98.005 24.9796 97.0575 24.9796C95.4305 24.9796 94.1522 24.7606 93.2225 24.3226C92.2929 23.8846 91.828 23.1739 91.828 22.1906C91.828 21.7794 91.913 21.4174 92.0828 21.1045C92.2526 20.7916 92.4448 20.5547 92.6594 20.3938C93.1779 20.6799 93.7634 20.9212 94.4159 21.1179C95.0685 21.3146 95.7434 21.4129 96.4407 21.4129C97.4061 21.4129 98.1749 21.252 98.747 20.9302C99.3191 20.6084 99.6051 20.0899 99.6051 19.3747V18.9457L99.4012 19.0294C98.7083 19.2954 97.8823 19.4284 96.9234 19.4284C96.1189 19.4284 95.3545 19.3077 94.6305 19.0663C93.9064 18.825 93.2717 18.4495 92.7264 17.94C92.1811 17.4305 91.7431 16.7734 91.4124 15.9689C91.0816 15.1644 90.9162 14.2079 90.9162 13.0994C90.9162 12.0089 91.0906 11.0613 91.4392 10.2568C91.7878 9.45225 92.2705 8.78628 92.8873 8.25887C93.5041 7.73145 94.2372 7.33813 95.0864 7.07889C95.9356 6.81966 96.8608 6.69004 97.862 6.69004ZM25.6766 7.10636C27.271 7.10636 28.5756 7.46412 29.5906 8.17963C30.6055 8.89515 31.2063 10.159 31.393 11.9711H27.9865L27.9539 11.7706C27.8767 11.3754 27.7282 11.0145 27.5082 10.6878C27.1349 10.1745 26.5555 9.91787 25.77 9.91787C24.65 9.91787 23.8839 10.474 23.4717 11.5861C23.254 12.1772 23.1451 12.9627 23.1451 13.9426C23.1451 14.8759 23.254 15.6264 23.4717 16.1942C23.8684 17.2519 24.615 17.7808 25.7116 17.7808C26.4894 17.7808 27.0416 17.5708 27.3682 17.1508C27.6948 16.7308 27.8932 16.1864 27.9632 15.5176H31.358L31.3349 15.7499C31.2223 16.6755 30.8644 17.5546 30.2614 18.3874C29.2192 19.8418 27.6754 20.5689 25.63 20.5689C23.5845 20.5689 22.0796 19.9623 21.1152 18.749C20.1508 17.5358 19.6686 15.9609 19.6686 14.0243C19.6686 11.8389 20.2014 10.1395 21.2669 8.92626C22.3324 7.71299 23.8023 7.10636 25.6766 7.10636ZM56.5736 7.07136C57.6313 7.07136 58.584 7.26968 59.4318 7.66633C60.2795 8.06297 60.9795 8.68905 61.5316 9.54456C62.0294 10.299 62.3522 11.1739 62.4999 12.1694C62.5855 12.7527 62.6205 13.5927 62.6049 14.6893H53.9021L53.914 14.9104C53.9971 16.0687 54.3936 16.8893 55.1037 17.3725C55.5625 17.6913 56.1147 17.8508 56.7602 17.8508C57.4446 17.8508 58.0007 17.6563 58.4285 17.2675C58.6618 17.0575 58.8679 16.7658 59.0468 16.3925H62.4416L62.4164 16.5668C62.2938 17.2648 61.9094 17.9728 61.2633 18.6907C60.1745 19.9273 58.6501 20.5456 56.6902 20.5456C55.0726 20.5456 53.6454 20.0245 52.4088 18.9824C51.1722 17.9402 50.5539 16.2447 50.5539 13.896C50.5539 11.695 51.1119 10.0073 52.228 8.83293C53.344 7.65855 54.7926 7.07136 56.5736 7.07136ZM79.9186 2.39923C80.3119 2.39923 80.665 2.42605 80.9779 2.47968C81.2908 2.53332 81.5545 2.64059 81.769 2.80149C81.9836 2.9624 82.1489 3.18141 82.2651 3.45852C82.3813 3.73564 82.4395 4.09767 82.4395 4.54463V20.0988L82.3494 20.115C82.1579 20.1489 81.8974 20.1927 81.5679 20.2463C81.1835 20.3089 80.7946 20.3402 80.4013 20.3402C80.008 20.3402 79.6549 20.3134 79.342 20.2597C79.0292 20.2061 78.7654 20.0988 78.5509 19.9379C78.3364 19.777 78.171 19.558 78.0548 19.2809C77.9386 19.0038 77.8805 18.6417 77.8805 18.1948V2.64059L77.9705 2.62444C78.162 2.59051 78.4226 2.54672 78.752 2.49309C79.1364 2.43052 79.5253 2.39923 79.9186 2.39923ZM86.7717 7.03867C87.165 7.03867 87.5181 7.06548 87.831 7.11912C88.1439 7.17275 88.4076 7.28002 88.6221 7.44093C88.8367 7.60184 89.002 7.82085 89.1182 8.09796C89.2345 8.37508 89.2926 8.73711 89.2926 9.18407V20.0988L89.2025 20.115C89.011 20.1489 88.7505 20.1927 88.421 20.2463C88.0366 20.3089 87.6478 20.3402 87.2544 20.3402C86.8611 20.3402 86.508 20.3134 86.1951 20.2597C85.8823 20.2061 85.6186 20.0988 85.404 19.9379C85.1895 19.777 85.0241 19.558 84.9079 19.2809C84.7917 19.0038 84.7336 18.6417 84.7336 18.1948V7.28003L84.8236 7.26388C85.0152 7.22995 85.2757 7.18616 85.6051 7.13253C85.9895 7.06995 86.3784 7.03867 86.7717 7.03867ZM108.121 2.39923C108.514 2.39923 108.867 2.42605 109.18 2.47968C109.493 2.53332 109.757 2.64059 109.971 2.80149C110.186 2.9624 110.351 3.18141 110.467 3.45852C110.584 3.73564 110.642 4.09767 110.642 4.54463V7.17275L110.735 7.1386C110.964 7.05745 111.287 6.96604 111.701 6.86435C112.175 6.74814 112.698 6.69004 113.27 6.69004C115.04 6.69004 116.421 7.13253 117.413 8.01751C118.405 8.90249 118.902 10.221 118.902 11.9731V20.0988L118.819 20.1218C118.64 20.1678 118.386 20.2138 118.057 20.2597C117.672 20.3134 117.275 20.3402 116.863 20.3402C116.47 20.3402 116.117 20.3134 115.804 20.2597C115.491 20.2061 115.228 20.0988 115.013 19.9379C114.798 19.777 114.633 19.558 114.517 19.2809C114.401 19.0038 114.343 18.6417 114.343 18.1948V12.2413L114.339 12.076C114.313 11.4305 114.131 10.9716 113.793 10.6993C113.426 10.4043 112.975 10.2568 112.439 10.2568C112.081 10.2568 111.741 10.3015 111.419 10.3909C111.098 10.4803 110.838 10.5875 110.642 10.7127V20.0988L110.559 20.1218C110.38 20.1678 110.127 20.2138 109.797 20.2597C109.413 20.3134 109.015 20.3402 108.604 20.3402C108.21 20.3402 107.857 20.3134 107.544 20.2597C107.231 20.2061 106.968 20.0988 106.753 19.9379C106.539 19.777 106.373 19.558 106.257 19.2809C106.141 19.0038 106.083 18.6417 106.083 18.1948V2.64059L106.173 2.62444C106.364 2.59051 106.625 2.54672 106.954 2.49309C107.339 2.43052 107.728 2.39923 108.121 2.39923ZM76.0154 3.87419L76.0769 3.97811C76.1774 4.16062 76.2687 4.38969 76.3506 4.66531C76.449 4.99606 76.4981 5.34022 76.4981 5.69779C76.4981 6.39504 76.3506 6.89117 76.0557 7.18616C75.7607 7.48116 75.3629 7.62865 74.8623 7.62865H69.2306V10.659H75.1036L75.1733 10.7626C75.2863 10.9439 75.3837 11.1686 75.4657 11.4367C75.564 11.7586 75.6132 12.0982 75.6132 12.4558C75.6132 13.1352 75.4657 13.6224 75.1707 13.9174C74.8757 14.2124 74.4779 14.3599 73.9773 14.3599H69.2842V20.0184L69.1931 20.0414C68.9972 20.0873 68.7191 20.1333 68.359 20.1793C67.9389 20.2329 67.5232 20.2597 67.112 20.2597C66.7008 20.2597 66.3388 20.2284 66.0259 20.1659C65.713 20.1033 65.4493 19.9916 65.2348 19.8306C65.0202 19.6697 64.8593 19.4463 64.752 19.1602C64.6448 18.8742 64.5911 18.4987 64.5911 18.0339V6.36823L64.5958 6.17939C64.6299 5.49926 64.8519 4.95435 65.2616 4.54463C65.7085 4.09767 66.3164 3.87419 67.0852 3.87419H76.0154ZM12.9843 2.95325V5.97475H4.36314V9.92954H11.9111V12.916H4.36314V20.1256H0.793335V2.95325H12.9843ZM17.8547 7.40967V20.1256H14.4832V7.40967H17.8547ZM36.2284 2.98825V12.2511L40.3698 7.46801H44.4879L40.0432 12.3327L44.6629 20.1256H40.6498L37.605 14.6893L36.2284 16.1242V20.1256H32.9619V2.98825H36.2284ZM48.9967 2.92992V20.1256H45.6719V2.92992H48.9967ZM119.15 3.76391C119.707 3.59632 120.658 3.55904 121.772 4.05145C122.896 4.54855 123.597 5.40119 123.875 6.60937L129.909 7.1222C129.984 7.12653 130.058 7.14167 130.132 7.16761C130.243 7.20653 130.302 7.26127 130.352 7.30413C130.475 7.40921 130.515 7.49024 130.573 7.63533C130.677 7.89332 130.645 8.19698 130.51 8.40518C130.292 8.74086 129.951 8.95806 129.486 9.05676L124.615 10.0922L125.475 14.1376C125.574 14.6019 125.792 14.901 126.128 15.0348C126.464 15.1687 126.901 15.1786 127.436 15.0647C127.704 15.0078 127.976 14.9266 128.253 14.8212C128.529 14.7158 128.767 14.6047 128.966 14.4877C129.168 14.65 129.353 14.8393 129.521 15.0558C129.688 15.2722 129.808 15.5501 129.88 15.8894C130.146 17.1439 128.172 18.3291 126.878 18.5617C125.679 18.7771 123.84 18.956 122.788 16.2015C121.737 13.4471 120.086 8.82994 118.825 4.98219C118.716 4.65014 118.649 4.32401 118.766 4.05489C118.829 3.90943 118.875 3.84664 119.15 3.76391ZM98.0765 10.2568C97.2005 10.2568 96.5435 10.5026 96.1054 10.9943C95.6674 11.4859 95.4484 12.1876 95.4484 13.0994C95.4484 14.1364 95.6674 14.8828 96.1054 15.3387C96.5435 15.7946 97.1022 16.0226 97.7815 16.0226C98.5145 16.0226 99.0956 15.8527 99.5247 15.513V10.5786L99.4426 10.5357C99.3239 10.4785 99.168 10.4213 98.9749 10.364C98.7336 10.2925 98.4341 10.2568 98.0765 10.2568ZM56.5736 9.81287C55.8036 9.81287 55.2067 10.054 54.7828 10.5362C54.359 11.0184 54.0926 11.6717 53.9837 12.4961H59.1518C59.0973 11.6172 58.831 10.9503 58.3527 10.4953C57.8743 10.0404 57.2813 9.81287 56.5736 9.81287ZM17.8547 2.82493V5.89309H14.4832V2.82493H17.8547ZM87.0131 1.05835C87.764 1.05835 88.3674 1.29077 88.8232 1.75561C89.2792 2.22044 89.5071 2.79255 89.5071 3.47193C89.5071 4.15131 89.2792 4.72342 88.8232 5.18825C88.3674 5.65309 87.764 5.88551 87.0131 5.88551C86.2622 5.88551 85.6588 5.65309 85.2029 5.18825C84.747 4.72342 84.519 4.15131 84.519 3.47193C84.519 2.79255 84.747 2.22044 85.2029 1.75561C85.6588 1.29077 86.2622 1.05835 87.0131 1.05835Z" fill="white"/>
</g>
<defs>
<clipPath id="clip0_1038_1489">
<rect width="130.072" height="24.6688" fill="white" transform="translate(0.793335 0.665649)"/>
</clipPath>
</defs>
</svg>
