<svg width="19" height="19" viewBox="0 0 19 19" fill="none" xmlns="http://www.w3.org/2000/svg">
<path d="M17.0267 14.6789C16.5461 14.2505 16.1254 13.7594 15.7758 13.2188C15.3942 12.4725 15.1655 11.6575 15.103 10.8216V8.35975C15.1063 7.04687 14.6301 5.77798 13.7638 4.79148C12.8975 3.80497 11.7008 3.16876 10.3985 3.00238V2.35949C10.3985 2.18304 10.3284 2.01382 10.2037 1.88905C10.0789 1.76428 9.90967 1.69418 9.73321 1.69418C9.55676 1.69418 9.38754 1.76428 9.26277 1.88905C9.138 2.01382 9.0679 2.18304 9.0679 2.35949V3.01234C7.77728 3.19072 6.59503 3.83078 5.74012 4.81397C4.88521 5.79716 4.41558 7.05686 4.41821 8.35975V10.8216C4.35579 11.6575 4.12706 12.4725 3.74542 13.2188C3.40199 13.7582 2.98801 14.2492 2.51447 14.6789C2.46131 14.7256 2.41871 14.7831 2.38949 14.8476C2.36028 14.912 2.34512 14.982 2.34503 15.0527V15.7305C2.34503 15.8627 2.39754 15.9894 2.491 16.0829C2.58446 16.1763 2.71122 16.2288 2.84339 16.2288H16.6978C16.83 16.2288 16.9567 16.1763 17.0502 16.0829C17.1436 15.9894 17.1962 15.8627 17.1962 15.7305V15.0527C17.1961 14.982 17.1809 14.912 17.1517 14.8476C17.1225 14.7831 17.0799 14.7256 17.0267 14.6789ZM3.38162 15.2321C3.8453 14.7842 4.25355 14.2823 4.59762 13.737C5.07834 12.8358 5.35883 11.8413 5.41991 10.8216V8.35975C5.40015 7.77569 5.49812 7.19362 5.70799 6.64821C5.91786 6.1028 6.23533 5.6052 6.64151 5.18504C7.0477 4.76489 7.53427 4.43076 8.07227 4.20256C8.61027 3.97437 9.18869 3.85677 9.77308 3.85677C10.3575 3.85677 10.9359 3.97437 11.4739 4.20256C12.0119 4.43076 12.4985 4.76489 12.9047 5.18504C13.3108 5.6052 13.6283 6.1028 13.8382 6.64821C14.048 7.19362 14.146 7.77569 14.1263 8.35975V10.8216C14.1873 11.8413 14.4678 12.8358 14.9485 13.737C15.2926 14.2823 15.7009 14.7842 16.1645 15.2321H3.38162Z" fill="#424242"/>
<path d="M9.79566 17.8638C10.1096 17.8565 10.4109 17.7385 10.6462 17.5306C10.8815 17.3226 11.0356 17.0382 11.0814 16.7275H8.46005C8.50713 17.0466 8.66853 17.3377 8.91421 17.5468C9.15989 17.7558 9.47313 17.8684 9.79566 17.8638Z" fill="#424242"/>
<circle cx="14.6221" cy="4.87418" r="2.61639" fill="#F99A0E" stroke="white" stroke-width="0.74754"/>
</svg>
