<svg width="98" height="23" viewBox="0 0 98 23" fill="none" xmlns="http://www.w3.org/2000/svg">
<g clip-path="url(#clip0_1038_1495)">
<path d="M12.0065 0.714355C6.0613 0.714355 1.24191 5.53374 1.24191 11.4789C1.24191 17.4241 6.0613 22.2435 12.0065 22.2435C17.9517 22.2435 22.7711 17.4241 22.7711 11.4789C22.7711 5.53374 17.9517 0.714355 12.0065 0.714355ZM14.5563 8.15312H12.9383C12.7465 8.15312 12.5335 8.40542 12.5335 8.74069V9.90909H14.5575L14.2513 11.5754H12.5335V16.5775H10.6239V11.5754H8.89149V9.90909H10.6239V8.92907C10.6239 7.52295 11.5995 6.38033 12.9383 6.38033H14.5563V8.15312Z" fill="white"/>
</g>
<g clip-path="url(#clip1_1038_1495)">
<path d="M86.7605 0.714355C80.8153 0.714355 75.9959 5.53374 75.9959 11.4789C75.9959 17.4241 80.8153 22.2435 86.7605 22.2435C92.7056 22.2435 97.525 17.4241 97.525 11.4789C97.525 5.53374 92.7056 0.714355 86.7605 0.714355ZM91.1392 9.53233C91.1437 9.62428 91.1448 9.71623 91.1448 9.80593C91.1448 12.6092 89.0132 15.8397 85.1132 15.8397C83.9609 15.8416 82.8325 15.5106 81.8637 14.8866C82.0285 14.9068 82.1978 14.9146 82.3694 14.9146C83.3629 14.9146 84.2768 14.5771 85.0022 14.0075C84.5601 13.9988 84.1317 13.8524 83.7768 13.5887C83.4218 13.325 83.158 12.9571 83.022 12.5363C83.3395 12.5967 83.6666 12.584 83.9785 12.4993C83.4986 12.4023 83.0671 12.1423 82.757 11.7634C82.447 11.3845 82.2776 10.91 82.2775 10.4204V10.3946C82.5634 10.5527 82.8908 10.6492 83.2384 10.6604C82.7885 10.3609 82.4701 9.90087 82.3481 9.37438C82.2262 8.84788 82.31 8.29469 82.5825 7.82794C83.115 8.48279 83.7792 9.01849 84.5319 9.40037C85.2847 9.78224 86.1092 10.0018 86.9522 10.0448C86.845 9.58987 86.8912 9.1123 87.0834 8.68631C87.2757 8.26032 87.6033 7.90979 88.0153 7.6892C88.4273 7.46861 88.9007 7.39032 89.3618 7.46651C89.8229 7.5427 90.2459 7.7691 90.5651 8.11051C91.0396 8.01663 91.4946 7.84258 91.9106 7.59583C91.7525 8.08712 91.4214 8.50429 90.9788 8.76984C91.3991 8.71922 91.8096 8.60622 92.1966 8.43457C91.9123 8.86055 91.5542 9.23231 91.1392 9.53233Z" fill="white"/>
</g>
<g clip-path="url(#clip2_1038_1495)">
<path d="M52.7474 11.4789C52.7474 12.3711 52.393 13.2267 51.7621 13.8576C51.1312 14.4884 50.2756 14.8429 49.3834 14.8429C48.4913 14.8429 47.6356 14.4884 47.0048 13.8576C46.3739 13.2267 46.0195 12.3711 46.0195 11.4789C46.0195 11.2872 46.0397 11.0999 46.0745 10.9183H44.8982V15.4001C44.8982 15.7119 45.1505 15.9642 45.4622 15.9642H53.3058C53.4552 15.9639 53.5983 15.9043 53.7039 15.7986C53.8094 15.6928 53.8687 15.5495 53.8687 15.4001V10.9183H52.6924C52.7272 11.0999 52.7474 11.2872 52.7474 11.4789ZM49.3834 13.7215C49.678 13.7215 49.9697 13.6634 50.2418 13.5506C50.5139 13.4378 50.7612 13.2725 50.9694 13.0641C51.1777 12.8558 51.3429 12.6085 51.4555 12.3363C51.5682 12.0641 51.6261 11.7724 51.6261 11.4778C51.626 11.1832 51.5679 10.8915 51.4551 10.6194C51.3423 10.3473 51.177 10.1 50.9686 9.8918C50.7603 9.68356 50.513 9.51838 50.2408 9.40572C49.9686 9.29306 49.6769 9.23511 49.3823 9.23519C48.7874 9.23533 48.2169 9.47181 47.7963 9.89259C47.3757 10.3134 47.1395 10.884 47.1397 11.4789C47.1398 12.0739 47.3763 12.6444 47.7971 13.0649C48.2179 13.4855 48.7885 13.7217 49.3834 13.7215ZM52.0746 9.12418H53.419C53.5084 9.12418 53.594 9.08877 53.6573 9.02572C53.7206 8.96266 53.7562 8.8771 53.7565 8.78778V7.44333C53.7565 7.35382 53.721 7.26797 53.6577 7.20467C53.5944 7.14138 53.5085 7.10582 53.419 7.10582H52.0746C51.9851 7.10582 51.8992 7.14138 51.8359 7.20467C51.7726 7.26797 51.7371 7.35382 51.7371 7.44333V8.78778C51.7382 8.9728 51.8896 9.12418 52.0746 9.12418ZM49.3834 0.714355C46.5285 0.714355 43.7905 1.84848 41.7717 3.86722C39.753 5.88597 38.6189 8.62398 38.6189 11.4789C38.6189 14.3339 39.753 17.0719 41.7717 19.0906C43.7905 21.1094 46.5285 22.2435 49.3834 22.2435C50.7971 22.2435 52.1968 21.9651 53.5029 21.4241C54.8089 20.8831 55.9956 20.0902 56.9951 19.0906C57.9947 18.091 58.7876 16.9044 59.3286 15.5983C59.8696 14.2923 60.148 12.8925 60.148 11.4789C60.148 10.0653 59.8696 8.66552 59.3286 7.3595C58.7876 6.05348 57.9947 4.86681 56.9951 3.86722C55.9956 2.86764 54.8089 2.07473 53.5029 1.53376C52.1968 0.992789 50.7971 0.714355 49.3834 0.714355ZM54.99 15.8397C54.99 16.5248 54.4293 17.0855 53.7442 17.0855H45.0227C44.3375 17.0855 43.7769 16.5248 43.7769 15.8397V7.11815C43.7769 6.43303 44.3375 5.87238 45.0227 5.87238H53.7442C54.4293 5.87238 54.99 6.43303 54.99 7.11815V15.8397Z" fill="white"/>
</g>
<defs>
<clipPath id="clip0_1038_1495">
<rect width="22.4262" height="22.4262" fill="white" transform="translate(0.793335 0.265625)"/>
</clipPath>
<clipPath id="clip1_1038_1495">
<rect width="22.4262" height="22.4262" fill="white" transform="translate(75.5472 0.265625)"/>
</clipPath>
<clipPath id="clip2_1038_1495">
<rect width="22.4262" height="22.4262" fill="white" transform="translate(38.1703 0.265625)"/>
</clipPath>
</defs>
</svg>
