<svg width="13" height="14" viewBox="0 0 13 14" fill="none" xmlns="http://www.w3.org/2000/svg">
<path d="M12.5286 5.49636L8.79874 4.91012L7.1314 1.25448C7.08586 1.15439 7.01094 1.07336 6.9184 1.02411C6.68629 0.900193 6.40424 1.00346 6.28819 1.25448L4.62085 4.91012L0.891024 5.49636C0.788193 5.51225 0.694176 5.56468 0.622194 5.64411C0.535172 5.74084 0.487219 5.87098 0.488872 6.00593C0.490525 6.14088 0.541648 6.2696 0.631008 6.3638L3.32959 9.2092L2.69204 13.2271C2.67709 13.3205 2.68665 13.4167 2.71964 13.5046C2.75264 13.5924 2.80774 13.6686 2.8787 13.7243C2.94967 13.78 3.03365 13.8132 3.12114 13.8199C3.20862 13.8267 3.2961 13.8068 3.37366 13.7625L6.7098 11.8655L10.0459 13.7625C10.137 13.8149 10.2428 13.8324 10.3441 13.8133C10.5998 13.7657 10.7716 13.5035 10.7276 13.2271L10.09 9.2092L12.7886 6.3638C12.862 6.28596 12.9105 6.18428 12.9252 6.07307C12.9649 5.79504 12.7856 5.53767 12.5286 5.49636V5.49636Z" fill="#FDBF00"/>
</svg>
