<svg width="14" height="14" viewBox="0 0 14 14" fill="none" xmlns="http://www.w3.org/2000/svg">
<path d="M12.9767 5.49636L9.23973 4.91012L7.56919 1.25448C7.52357 1.15439 7.4485 1.07336 7.35578 1.02411C7.12323 0.900193 6.84063 1.00346 6.72436 1.25448L5.05382 4.91012L1.31681 5.49636C1.21379 5.51225 1.11959 5.56468 1.04747 5.64411C0.960279 5.74084 0.912233 5.87098 0.913889 6.00593C0.915545 6.14088 0.966767 6.2696 1.0563 6.3638L3.76007 9.2092L3.12129 13.2271C3.10631 13.3205 3.11589 13.4167 3.14895 13.5046C3.18201 13.5924 3.23722 13.6686 3.30832 13.7243C3.37942 13.78 3.46356 13.8132 3.55122 13.8199C3.63887 13.8267 3.72652 13.8068 3.80423 13.7625L7.14678 11.8655L10.4893 13.7625C10.5806 13.8149 10.6866 13.8324 10.7881 13.8133C11.0442 13.7657 11.2164 13.5035 11.1723 13.2271L10.5335 9.2092L13.2373 6.3638C13.3108 6.28596 13.3594 6.18428 13.3741 6.07307C13.4139 5.79504 13.2343 5.53767 12.9767 5.49636V5.49636Z" fill="#FDBF00"/>
</svg>
