<svg width="14" height="14" viewBox="0 0 14 14" fill="none" xmlns="http://www.w3.org/2000/svg">
<path d="M12.7412 5.49636L9.01141 4.91012L7.34407 1.25448C7.29853 1.15439 7.22361 1.07336 7.13106 1.02411C6.89896 0.900193 6.61691 1.00346 6.50086 1.25448L4.83352 4.91012L1.10369 5.49636C1.00086 5.51225 0.906838 5.56468 0.834856 5.64411C0.747834 5.74084 0.699881 5.87098 0.701534 6.00593C0.703186 6.14088 0.75431 6.2696 0.84367 6.3638L3.54226 9.2092L2.9047 13.2271C2.88975 13.3205 2.89931 13.4167 2.93231 13.5046C2.9653 13.5924 3.0204 13.6686 3.09137 13.7243C3.16233 13.78 3.24632 13.8132 3.3338 13.8199C3.42128 13.8267 3.50877 13.8068 3.58633 13.7625L6.92246 11.8655L10.2586 13.7625C10.3497 13.8149 10.4555 13.8324 10.5568 13.8133C10.8124 13.7657 10.9843 13.5035 10.9402 13.2271L10.3027 9.2092L13.0013 6.3638C13.0747 6.28596 13.1232 6.18428 13.1379 6.07307C13.1775 5.79504 12.9983 5.53767 12.7412 5.49636V5.49636Z" fill="#FDBF00"/>
</svg>
