<svg width="13" height="14" viewBox="0 0 13 14" fill="none" xmlns="http://www.w3.org/2000/svg">
<path d="M12.1665 5.49636L8.43669 4.91012L6.76936 1.25448C6.72382 1.15439 6.6489 1.07336 6.55635 1.02411C6.32425 0.900193 6.0422 1.00346 5.92614 1.25448L4.25881 4.91012L0.528993 5.49636C0.426162 5.51225 0.332145 5.56468 0.260164 5.64411C0.173142 5.74084 0.125189 5.87098 0.126842 6.00593C0.128495 6.14088 0.179618 6.2696 0.268978 6.3638L2.96755 9.2092L2.33 13.2271C2.31505 13.3205 2.32461 13.4167 2.35761 13.5046C2.3906 13.5924 2.4457 13.6686 2.51667 13.7243C2.58763 13.78 2.67162 13.8132 2.7591 13.8199C2.84658 13.8267 2.93406 13.8068 3.01162 13.7625L6.34775 11.8655L9.68388 13.7625C9.77496 13.8149 9.88073 13.8324 9.98209 13.8133C10.2377 13.7657 10.4096 13.5035 10.3655 13.2271L9.72795 9.2092L12.4265 6.3638C12.5 6.28596 12.5485 6.18428 12.5631 6.07307C12.6028 5.79504 12.4236 5.53767 12.1665 5.49636V5.49636Z" fill="#FDBF00"/>
</svg>
