<svg width="19" height="20" viewBox="0 0 19 20" fill="none" xmlns="http://www.w3.org/2000/svg">
<g clip-path="url(#clip0_1038_1444)">
<path d="M9.61819 17.8541C7.57543 17.8541 5.61634 17.0427 4.17189 15.5982C2.72744 14.1538 1.91596 12.1947 1.91596 10.1519C1.91596 8.10915 2.72744 6.15006 4.17189 4.70561C5.61634 3.26117 7.57543 2.44968 9.61819 2.44968C11.6609 2.44968 13.62 3.26117 15.0645 4.70561C16.5089 6.15006 17.3204 8.10915 17.3204 10.1519C17.3204 12.1947 16.5089 14.1538 15.0645 15.5982C13.62 17.0427 11.6609 17.8541 9.61819 17.8541ZM9.61819 18.9545C11.9528 18.9545 14.1917 18.027 15.8425 16.3763C17.4933 14.7255 18.4207 12.4865 18.4207 10.1519C18.4207 7.81733 17.4933 5.57837 15.8425 3.92757C14.1917 2.27677 11.9528 1.34937 9.61819 1.34937C7.28361 1.34937 5.04465 2.27677 3.39385 3.92757C1.74305 5.57837 0.815643 7.81733 0.815643 10.1519C0.815643 12.4865 1.74305 14.7255 3.39385 16.3763C5.04465 18.027 7.28361 18.9545 9.61819 18.9545V18.9545Z" fill="#1262AF"/>
<path d="M7.65325 6.41416C7.75704 6.36071 7.87358 6.33693 7.99002 6.34544C8.10646 6.35395 8.2183 6.39441 8.31322 6.46239L12.7554 9.63536C12.8376 9.69406 12.9047 9.77156 12.951 9.86141C12.9972 9.95126 13.0214 10.0509 13.0214 10.1519C13.0214 10.253 12.9972 10.3526 12.951 10.4424C12.9047 10.5323 12.8376 10.6098 12.7554 10.6685L8.31322 13.8414C8.21833 13.9094 8.10655 13.9498 7.99017 13.9583C7.87378 13.9668 7.75731 13.9431 7.65355 13.8897C7.54978 13.8363 7.46275 13.7553 7.40202 13.6557C7.34128 13.556 7.3092 13.4416 7.3093 13.3249V6.97895C7.30917 6.86229 7.34121 6.74785 7.40189 6.64821C7.46257 6.54857 7.54954 6.46759 7.65325 6.41416V6.41416Z" fill="#1262AF"/>
</g>
<defs>
<clipPath id="clip0_1038_1444">
<rect width="18.6885" height="18.6885" fill="white" transform="translate(0.273956 0.807739)"/>
</clipPath>
</defs>
</svg>
