<svg width="20" height="20" viewBox="0 0 20 20" fill="none" xmlns="http://www.w3.org/2000/svg">
<path d="M9.98022 17.8541C7.93746 17.8541 5.97837 17.0427 4.53392 15.5982C3.08947 14.1538 2.27799 12.1947 2.27799 10.1519C2.27799 8.10915 3.08947 6.15006 4.53392 4.70561C5.97837 3.26117 7.93746 2.44968 9.98022 2.44968C12.023 2.44968 13.9821 3.26117 15.4265 4.70561C16.871 6.15006 17.6824 8.10915 17.6824 10.1519C17.6824 12.1947 16.871 14.1538 15.4265 15.5982C13.9821 17.0427 12.023 17.8541 9.98022 17.8541ZM9.98022 18.9545C12.3148 18.9545 14.5538 18.027 16.2046 16.3763C17.8554 14.7255 18.7828 12.4865 18.7828 10.1519C18.7828 7.81733 17.8554 5.57837 16.2046 3.92757C14.5538 2.27677 12.3148 1.34937 9.98022 1.34937C7.64564 1.34937 5.40668 2.27677 3.75588 3.92757C2.10508 5.57837 1.17767 7.81733 1.17767 10.1519C1.17767 12.4865 2.10508 14.7255 3.75588 16.3763C5.40668 18.027 7.64564 18.9545 9.98022 18.9545V18.9545Z" fill="#1262AF"/>
<path d="M8.01528 6.41416C8.11907 6.36071 8.23561 6.33693 8.35205 6.34544C8.46849 6.35395 8.58033 6.39441 8.67525 6.46239L13.1174 9.63536C13.1997 9.69406 13.2667 9.77156 13.313 9.86141C13.3593 9.95126 13.3834 10.0509 13.3834 10.1519C13.3834 10.253 13.3593 10.3526 13.313 10.4424C13.2667 10.5323 13.1997 10.6098 13.1174 10.6685L8.67525 13.8414C8.58036 13.9094 8.46858 13.9498 8.3522 13.9583C8.23581 13.9668 8.11934 13.9431 8.01558 13.8897C7.91181 13.8363 7.82478 13.7553 7.76405 13.6557C7.70331 13.556 7.67123 13.4416 7.67133 13.3249V6.97895C7.6712 6.86229 7.70324 6.74785 7.76392 6.64821C7.8246 6.54857 7.91157 6.46759 8.01528 6.41416V6.41416Z" fill="#1262AF"/>
</svg>
